<?xml version="1.0" encoding="utf-8"?>
<!-- Generator: Adobe Illustrator 15.0.0, SVG Export Plug-In . SVG Version: 6.00 Build 0)  -->
<!DOCTYPE svg PUBLIC "-//W3C//DTD SVG 1.1//EN" "http://www.w3.org/Graphics/SVG/1.1/DTD/svg11.dtd">
<svg version="1.1" id="Layer_1" xmlns="http://www.w3.org/2000/svg" xmlns:xlink="http://www.w3.org/1999/xlink" x="0px" y="0px"
	 width="300px" height="300px" viewBox="0 0 300 300" style="enable-background:new 0 0 300 300;" xml:space="preserve">
<style type="text/css">
<![CDATA[
	.st0{fill:none;stroke:#747368;stroke-width:2;stroke-miterlimit:10;}
	.st1{fill:#747368;stroke:#747368;stroke-miterlimit:10;}
	.st2{fill:#999999;}
	.st3{fill:#F3F1DA;stroke:#747368;stroke-miterlimit:10;}
	.st4{fill-rule:evenodd;clip-rule:evenodd;fill:#999999;}
	.st5{fill:#747368;}
]]>
</style>
<path class="st3" d="M967.8-332.5c0,125.4-101.7,227.1-227.1,227.1c-125.4,0-227.1-101.7-227.1-227.1
	c0-125.4,101.7-227.1,227.1-227.1C866.2-559.6,967.8-457.9,967.8-332.5z"/>
<path class="st3" d="M-226.1-450.5c0,125.4-101.7,227.1-227.1,227.1c-125.4,0-227.1-101.7-227.1-227.1
	c0-125.4,101.7-227.1,227.1-227.1C-327.8-677.6-226.1-575.9-226.1-450.5z"/>
<path class="st3" d="M1495.6-506.5c0,125.4-101.7,227.1-227.1,227.1c-125.4,0-227.1-101.7-227.1-227.1
	c0-125.4,101.7-227.1,227.1-227.1C1393.9-733.6,1495.6-631.9,1495.6-506.5z"/>
<path class="st3" d="M1973-533.5c0,125.4-101.7,227.1-227.1,227.1c-125.4,0-227.1-101.7-227.1-227.1
	c0-125.4,101.7-227.1,227.1-227.1C1871.3-760.6,1973-658.9,1973-533.5z"/>
<g>
	<path class="st4" d="M-370.2,228.8v-89.4h-26.4v-33.9h26.4c0.3-10.8,0.6-21.6,0.9-32.4c0.6-15.7,10.6-28.5,32.4-28.5h40.9v35.8
		h-33.2v26.6h34.1v31.6h-33.2v90.2H-370.2z"/>
</g>
<path class="st2" d="M960.9,91.2v91.5c17.6-15.3,35.3-30.6,52.9-45.9C996.2,121.7,978.5,106.5,960.9,91.2z M1045.9,158.2
	c-2.3,2-5.2,2-7.5,0c-5.5-4.8-11-9.5-16.5-14.3c-17.1,14.8-34.1,29.7-51.2,44.6c47.3,0,94.6,0,141.9,0
	c-16.9-14.8-33.7-29.7-50.6-44.5C1056.7,148.7,1051.3,153.5,1045.9,158.2z M1042.1,147.4l16.2-14.3c18.3-16,36.5-32.1,54.8-48.1
	H969.9c18.6,16.1,37.2,32.1,55.8,48.1C1031.1,137.9,1036.6,142.6,1042.1,147.4z M1070.1,136.9c17.2,15.2,34.5,30.4,51.7,45.6V91.4
	L1070.1,136.9z"/>
<path class="st2" d="M-857.5,44.3c-32.2-0.7-58.9,25-59.6,57.2c-0.6,32.2,55.8,127.7,55.8,127.7s60.3-93,60.9-125.3
	C-799.7,71.6-825.2,45-857.5,44.3z M-859.4,139.5c-20-0.4-35.8-16.9-35.4-36.9c0.4-20,16.9-35.8,36.9-35.4
	c20,0.4,35.8,16.9,35.4,36.9C-822.9,124.1-839.5,139.9-859.4,139.5z"/>
<path class="st2" d="M-1275.6,149.8c-0.8,1.8-2.6,3-4.6,3h-16c-1.3,0-2.6-0.5-3.6-1.5l-68.2-71.2l-68.1,71.2c-0.9,1-2.2,1.5-3.6,1.5
	h-16.1c-2,0-3.8-1.2-4.6-3c-0.8-1.8-0.4-3.9,1-5.4l87-90.2c1.2-1.2,2.8-1.9,4.4-1.9c1.6,0,3.2,0.6,4.3,1.8l87,90.3
	C-1275.2,145.9-1274.8,148-1275.6,149.8z M-1431.4,158.1v54.1c0,4.9,3.3,8.9,7.5,8.9h35.5v-58.7c0-5,4-9,9-9h23.2c5,0,9,4,9,9v58.7
	h35.5c4.1,0,7.5-4,7.5-8.9v-53.9l-63.5-66.5L-1431.4,158.1z"/>
<g>
	<path class="st5" d="M228.8,49.2c-24.9-17.5-99.1-33.6-113.4,4C111,31.6,89.7,39.8,76,53.8C62.8,67.2,60.9,92,60.6,109.7
		c-0.1,3.9,0.3,40.1,11.3,33.6c14.8-8.7,43.5-34.8,46-52.5c8.2,12.8,102.5,60.4,116.7,46c11.5-11.6,11.8-28.5,10.6-47.9
		C243.9,67.1,236.5,51.2,228.8,49.2C221.4,47.4,248.3,63,228.8,49.2z"/>
	<path class="st0" d="M229.7,156.7c0,61.4-34.7,111.2-77.5,111.2s-77.5-49.8-77.5-111.2c0-61.4,34.7-111.2,77.5-111.2
		S229.7,95.3,229.7,156.7z"/>
	<path class="st1" d="M155.9,146.1c0,0,42.5,0.9,56.3,10.2"/>
	<path class="st1" d="M140.2,146.1c0,0-42.5,0.9-56.3,10.2"/>
	<path class="st5" d="M113.4,222.7c0,0,53.5,4.6,68.3,0"/>
</g>
</svg>
