<?xml version="1.0" encoding="utf-8"?>
<!-- Generator: Adobe Illustrator 15.0.0, SVG Export Plug-In . SVG Version: 6.00 Build 0)  -->
<!DOCTYPE svg PUBLIC "-//W3C//DTD SVG 1.1//EN" "http://www.w3.org/Graphics/SVG/1.1/DTD/svg11.dtd">
<svg version="1.1" id="Layer_1" xmlns="http://www.w3.org/2000/svg" xmlns:xlink="http://www.w3.org/1999/xlink" x="0px" y="0px"
	 width="300px" height="300px" viewBox="0 0 300 300" style="enable-background:new 0 0 300 300;" xml:space="preserve">
<style type="text/css">
<![CDATA[
	.st0{fill:#999999;}
	.st1{fill:#F3F1DA;stroke:#747368;stroke-miterlimit:10;}
	.st2{fill-rule:evenodd;clip-rule:evenodd;fill:#999999;}
]]>
</style>
<path class="st1" d="M967.8-332.5c0,125.4-101.7,227.1-227.1,227.1c-125.4,0-227.1-101.7-227.1-227.1
	c0-125.4,101.7-227.1,227.1-227.1C866.2-559.6,967.8-457.9,967.8-332.5z"/>
<path class="st1" d="M-226.1-450.5c0,125.4-101.7,227.1-227.1,227.1c-125.4,0-227.1-101.7-227.1-227.1
	c0-125.4,101.7-227.1,227.1-227.1C-327.8-677.6-226.1-575.9-226.1-450.5z"/>
<path class="st1" d="M1495.6-506.5c0,125.4-101.7,227.1-227.1,227.1c-125.4,0-227.1-101.7-227.1-227.1
	c0-125.4,101.7-227.1,227.1-227.1C1393.9-733.6,1495.6-631.9,1495.6-506.5z"/>
<path class="st1" d="M1973-533.5c0,125.4-101.7,227.1-227.1,227.1c-125.4,0-227.1-101.7-227.1-227.1
	c0-125.4,101.7-227.1,227.1-227.1C1871.3-760.6,1973-658.9,1973-533.5z"/>
<g>
	<path class="st2" d="M1145.3,228.8v-89.4h-26.4v-33.9h26.4c0.3-10.8,0.6-21.6,0.9-32.4c0.6-15.7,10.6-28.5,32.4-28.5h40.9v35.8
		h-33.2v26.6h34.1v31.6H1187v90.2H1145.3z"/>
</g>
<path class="st0" d="M1584.7,91.2v91.5c17.6-15.3,35.3-30.6,52.9-45.9C1619.9,121.7,1602.3,106.5,1584.7,91.2z M1669.7,158.2
	c-2.3,2-5.2,2-7.5,0c-5.5-4.8-11-9.5-16.5-14.3c-17.1,14.8-34.1,29.7-51.2,44.6c47.3,0,94.6,0,141.9,0
	c-16.9-14.8-33.7-29.7-50.6-44.5C1680.4,148.7,1675,153.5,1669.7,158.2z M1665.8,147.4l16.2-14.3c18.3-16,36.5-32.1,54.8-48.1
	h-143.2c18.6,16.1,37.2,32.1,55.8,48.1C1654.9,137.9,1660.4,142.6,1665.8,147.4z M1693.9,136.9c17.2,15.2,34.5,30.4,51.7,45.6V91.4
	L1693.9,136.9z"/>
<path class="st0" d="M656,44.3c-32.2-0.7-58.9,25-59.6,57.2c-0.6,32.2,55.8,127.7,55.8,127.7s60.3-93,60.9-125.3
	C713.8,71.6,688.2,45,656,44.3z M654.1,139.5c-20-0.4-35.8-16.9-35.4-36.9c0.4-20,16.9-35.8,36.9-35.4c20,0.4,35.8,16.9,35.4,36.9
	C690.6,124.1,674,139.9,654.1,139.5z"/>
<path class="st0" d="M239.9,149.8c-0.8,1.8-2.6,3-4.6,3h-16c-1.3,0-2.6-0.5-3.6-1.5L147.6,80l-68.1,71.2c-0.9,1-2.2,1.5-3.6,1.5
	H59.8c-2,0-3.8-1.2-4.6-3c-0.8-1.8-0.4-3.9,1-5.4l87-90.2c1.2-1.2,2.8-1.9,4.4-1.9c1.6,0,3.2,0.6,4.3,1.8l87,90.3
	C240.3,145.9,240.7,148,239.9,149.8z M84.1,158.1v54.1c0,4.9,3.3,8.9,7.5,8.9H127v-58.7c0-5,4-9,9-9h23.2c5,0,9,4,9,9v58.7h35.5
	c4.1,0,7.5-4,7.5-8.9v-53.9l-63.5-66.5L84.1,158.1z"/>
</svg>
